<svg xmlns="http://www.w3.org/2000/svg" width="1200" height="630" viewBox="0 0 1200 630" role="img" aria-labelledby="title desc">
  <title id="title">AI Research Hub social preview</title>
  <desc id="desc">Professional AI guides for machine learning, generative AI, LLMs, agents, automation, and MLOps.</desc>
  <defs>
    <linearGradient id="bg" x1="0" y1="0" x2="1" y2="1"><stop offset="0" stop-color="#050816"/><stop offset="0.5" stop-color="#111936"/><stop offset="1" stop-color="#0a0e1a"/></linearGradient>
    <radialGradient id="g1" cx="18%" cy="18%" r="62%"><stop offset="0" stop-color="#667eea" stop-opacity=".6"/><stop offset="1" stop-color="#667eea" stop-opacity="0"/></radialGradient>
    <radialGradient id="g2" cx="88%" cy="78%" r="58%"><stop offset="0" stop-color="#00d9a5" stop-opacity=".5"/><stop offset="1" stop-color="#00d9a5" stop-opacity="0"/></radialGradient>
    <linearGradient id="accent" x1="0" y1="0" x2="1" y2="0"><stop offset="0" stop-color="#4facfe"/><stop offset=".5" stop-color="#667eea"/><stop offset="1" stop-color="#00d9a5"/></linearGradient>
    <filter id="blur"><feGaussianBlur stdDeviation="30"/></filter>
  </defs>
  <rect width="1200" height="630" fill="url(#bg)"/>
  <rect width="1200" height="630" fill="url(#g1)"/>
  <rect width="1200" height="630" fill="url(#g2)"/>
  <g opacity=".28" stroke="rgba(255,255,255,.15)"><path d="M0 0V630"/><path d="M86 0V630"/><path d="M172 0V630"/><path d="M258 0V630"/><path d="M344 0V630"/><path d="M430 0V630"/><path d="M516 0V630"/><path d="M602 0V630"/><path d="M688 0V630"/><path d="M774 0V630"/><path d="M860 0V630"/><path d="M946 0V630"/><path d="M1032 0V630"/><path d="M1118 0V630"/><path d="M1204 0V630"/><path d="M0 0H1200"/><path d="M0 78H1200"/><path d="M0 156H1200"/><path d="M0 234H1200"/><path d="M0 312H1200"/><path d="M0 390H1200"/><path d="M0 468H1200"/><path d="M0 546H1200"/><path d="M0 624H1200"/></g>
  <g filter="url(#blur)" opacity=".9"><circle cx="230" cy="500" r="110" fill="#4facfe"/><circle cx="985" cy="150" r="105" fill="#667eea"/><circle cx="970" cy="460" r="120" fill="#00d9a5"/></g>
  <rect x="54" y="54" width="1092" height="522" rx="44" fill="rgba(255,255,255,.06)" stroke="rgba(255,255,255,.17)"/>
  <text x="88" y="130" fill="#dbeafe" font-family="Inter,Segoe UI,Arial" font-size="24" font-weight="800">AI Research Hub</text>
  <rect x="88" y="160" width="210" height="9" rx="5" fill="url(#accent)"/>
  <text x="88" y="280" fill="#fff" font-family="Inter,Segoe UI,Arial" font-size="74" font-weight="900" letter-spacing="-2.4">Professional AI</text>
  <text x="88" y="360" fill="#fff" font-family="Inter,Segoe UI,Arial" font-size="74" font-weight="900" letter-spacing="-2.4">Guides 2026</text>
  <text x="88" y="445" fill="#c7d2fe" font-family="Inter,Segoe UI,Arial" font-size="28" font-weight="500">Machine Learning • Generative AI • LLMs • Agents • MLOps</text>
  <text x="88" y="525" fill="#93c5fd" font-family="Inter,Segoe UI,Arial" font-size="24" font-weight="800">SEO-ready knowledge base with tutorials, FAQs, and practical examples</text>
</svg>