<svg xmlns="http://www.w3.org/2000/svg" width="1200" height="630" viewBox="0 0 1200 630" role="img" aria-labelledby="title desc">
  <title id="title">Deep Learning Fundamentals - AI Research Hub</title>
  <desc id="desc">Neural architectures powering modern AI</desc>
  <defs>
    <linearGradient id="bg" x1="0" y1="0" x2="1" y2="1"><stop offset="0" stop-color="#0a0e1a"/><stop offset="0.45" stop-color="#111936"/><stop offset="1" stop-color="#050816"/></linearGradient>
    <radialGradient id="glow1" cx="20%" cy="20%" r="60%"><stop offset="0" stop-color="#f093fb" stop-opacity="0.55"/><stop offset="1" stop-color="#f093fb" stop-opacity="0"/></radialGradient>
    <radialGradient id="glow2" cx="88%" cy="78%" r="56%"><stop offset="0" stop-color="#f5576c" stop-opacity="0.48"/><stop offset="1" stop-color="#f5576c" stop-opacity="0"/></radialGradient>
    <linearGradient id="accent" x1="0" y1="0" x2="1" y2="0"><stop offset="0" stop-color="#f093fb"/><stop offset="0.5" stop-color="#f5576c"/><stop offset="1" stop-color="#667eea"/></linearGradient>
    <filter id="blur"><feGaussianBlur stdDeviation="28"/></filter>
  </defs>
  <rect width="1200" height="630" fill="url(#bg)"/>
  <rect width="1200" height="630" fill="url(#glow1)"/>
  <rect width="1200" height="630" fill="url(#glow2)"/>
  <g opacity="0.32" stroke="rgba(255,255,255,.14)" stroke-width="1">
    <path d="M60 0 V630"/><path d="M146 0 V630"/><path d="M232 0 V630"/><path d="M318 0 V630"/><path d="M404 0 V630"/><path d="M490 0 V630"/><path d="M576 0 V630"/><path d="M662 0 V630"/><path d="M748 0 V630"/><path d="M834 0 V630"/><path d="M920 0 V630"/><path d="M1006 0 V630"/><path d="M1092 0 V630"/><path d="M1178 0 V630"/>
    <path d="M0 54 H1200"/><path d="M0 132 H1200"/><path d="M0 210 H1200"/><path d="M0 288 H1200"/><path d="M0 366 H1200"/><path d="M0 444 H1200"/><path d="M0 522 H1200"/><path d="M0 600 H1200"/>
  </g>
  <g filter="url(#blur)" opacity="0.9"><circle cx="930" cy="158" r="92" fill="#f093fb"/><circle cx="1030" cy="455" r="112" fill="#f5576c"/><circle cx="240" cy="500" r="90" fill="#667eea"/></g>
  <rect x="54" y="54" width="1092" height="522" rx="42" fill="rgba(255,255,255,.055)" stroke="rgba(255,255,255,.16)"/>
  <rect x="88" y="88" width="220" height="44" rx="22" fill="rgba(255,255,255,.09)" stroke="rgba(255,255,255,.16)"/>
  <text x="118" y="118" fill="#dbeafe" font-family="Inter,Segoe UI,Arial" font-size="20" font-weight="700">AI Research Hub</text>
  <rect x="88" y="154" width="160" height="8" rx="4" fill="url(#accent)"/>
  <text fill="#ffffff" font-family="Inter,Segoe UI,Arial" font-size="62" font-weight="800" letter-spacing="-1.8"><tspan x="88" y="244">Deep Learning</tspan><tspan x="88" y="316">Fundamentals</tspan></text>
  <text x="88" y="478" fill="#c7d2fe" font-family="Inter,Segoe UI,Arial" font-size="26" font-weight="500">Neural architectures powering modern AI</text>
  <text x="88" y="535" fill="#93c5fd" font-family="Inter,Segoe UI,Arial" font-size="22" font-weight="700">Complete SEO Guide • 2026 • Beginner to Advanced</text>
  <g transform="translate(924 128)">
    <circle cx="92" cy="92" r="90" fill="rgba(255,255,255,.06)" stroke="rgba(255,255,255,.18)"/>
    <path d="M92 34 L146 66 V128 L92 160 L38 128 V66 Z" fill="none" stroke="url(#accent)" stroke-width="10" stroke-linejoin="round"/>
    <circle cx="92" cy="92" r="28" fill="url(#accent)"/>
  </g>
  <text x="88" y="594" fill="#64748b" font-family="JetBrains Mono,Consolas,monospace" font-size="14">/assets/images/deep-learning-fundamentals.svg</text>
</svg>